<?xml version="1.0" encoding="UTF-8" standalone="no"?>
<!-- Created with Inkscape (http://www.inkscape.org/) -->

<svg
   width="64"
   height="64.000015"
   viewBox="0 0 16.933331 16.933335"
   version="1.1"
   id="svg1"
   xml:space="preserve"
   sodipodi:docname="AddPDFIcon.svg"
   inkscape:version="1.3 (0e150ed6c4, 2023-07-21)"
   xmlns:inkscape="http://www.inkscape.org/namespaces/inkscape"
   xmlns:sodipodi="http://sodipodi.sourceforge.net/DTD/sodipodi-0.dtd"
   xmlns="http://www.w3.org/2000/svg"
   xmlns:svg="http://www.w3.org/2000/svg"><sodipodi:namedview
     id="namedview1"
     pagecolor="#505050"
     bordercolor="#eeeeee"
     borderopacity="1"
     inkscape:showpageshadow="0"
     inkscape:pageopacity="0"
     inkscape:pagecheckerboard="0"
     inkscape:deskcolor="#505050"
     inkscape:zoom="5.9296861"
     inkscape:cx="42.83532"
     inkscape:cy="42.750998"
     inkscape:window-width="1680"
     inkscape:window-height="979"
     inkscape:window-x="-8"
     inkscape:window-y="-8"
     inkscape:window-maximized="1"
     inkscape:current-layer="g24" /><defs
     id="defs1"><linearGradient
       id="swatch5"><stop
         style="stop-color:#000000;stop-opacity:1;"
         offset="0"
         id="stop5" /></linearGradient><linearGradient
       id="swatch4"><stop
         style="stop-color:#000000;stop-opacity:1;"
         offset="0"
         id="stop4" /></linearGradient><linearGradient
       id="swatch3"><stop
         style="stop-color:#000000;stop-opacity:1;"
         offset="0"
         id="stop3" /></linearGradient></defs><g
     id="g24"
     transform="matrix(1.1846761,0,0,1.1846761,-148.36068,141.85437)"
     style="display:inline;stroke:#010101;stroke-opacity:1;fill:none;fill-opacity:1"
     inkscape:label="AddPDFIcon"><path
       style="fill:none;stroke:#ffffff;stroke-width:1.1;stroke-linecap:round;stroke-opacity:1;paint-order:stroke fill markers;fill-opacity:1"
       d="m 134.17033,-119.1847 c -1.45945,-0.009 -2.91882,-0.0171 -3.84272,-0.0222 -0.92389,-0.005 -1.31226,-0.007 -1.76838,0.14875 -0.45613,0.15553 -0.98002,0.46826 -1.24196,0.95581 -0.26195,0.48755 -0.26195,0.8145 -0.26145,2.64219 5e-4,1.82769 -5e-4,-0.82993 5e-4,2.14178 0.001,2.97171 0.001,3.62236 0.29997,4.04755 0.29898,0.42518 0.89692,0.62488 1.39007,0.7239 0.49316,0.099 0.88153,0.0974 1.8934,0.0872 1.01187,-0.0102 2.64725,-0.0288 3.9197,-0.0382 1.27244,-0.009 2.18194,-0.009 3.09145,-0.009 0.65066,0 1.30132,0 1.72651,-0.29897 0.42518,-0.29898 0.62488,-0.89692 0.7239,-1.39007 0.099,-0.49316 0.0974,-0.88153 0.0922,-1.37083 -0.005,-0.48931 -0.0137,-1.07951 -0.0222,-1.66976"
       id="path4-2-8"
       transform="rotate(90,132.39741,-113.84938)" /><path
       id="path7"
       style="fill:none;stroke:#ffffff;stroke-width:1.1;stroke-linecap:round;stroke-opacity:1;paint-order:stroke fill markers;fill-opacity:1"
       d="m 133.7567,-108.03786 c 1.32911,0 2.65823,0 3.98733,0 m -1.98782,-2.04044 c 0,1.3603 0,2.72058 0,4.08088" /><path
       id="path23"
       style="fill:none;fill-opacity:1;stroke:#ffffff;stroke-width:0.600001;stroke-linecap:butt;stroke-linejoin:miter;stroke-dasharray:none;stroke-opacity:1;paint-order:stroke fill markers"
       d="m 134.56352,-114.55673 c 0.55717,0 1.11435,0 1.67152,0 m -1.59823,-1.37196 c 0.53118,-0.002 1.06238,-0.004 1.59356,-0.006 m -1.61423,2.9916 c 0,-1.09525 0,-2.19049 0,-3.28574 m -2.96118,0.28345 c 0.28714,-0.01 0.57427,-0.0195 0.82371,0.0108 0.24944,0.0303 0.46116,0.10066 0.60652,0.23782 0.14535,0.13716 0.22433,0.34109 0.2571,0.63462 0.0328,0.29354 0.0193,0.67659 -0.0575,0.96737 -0.0768,0.29078 -0.21702,0.48921 -0.39237,0.60634 -0.17536,0.11714 -0.38584,0.15296 -0.59678,0.17071 -0.21093,0.0177 -0.42226,0.0174 -0.63359,0.0171 m -0.0155,-2.96147 c 6.7e-4,0.10005 0.001,0.2001 0.004,0.74387 0.003,0.54377 0.008,1.53125 0.0127,2.51874 m -2.87567,-3.24984 c 0.002,0.45361 0.003,0.90722 0.002,1.31599 -0.002,0.40877 -0.007,0.7727 -0.009,1.09531 -0.003,0.32261 -0.003,0.60389 -0.003,0.88518 m 0.0108,-1.51396 c 0.32964,0 0.65927,0 0.91544,-0.0148 0.25616,-0.0148 0.43888,-0.0444 0.57828,-0.17225 0.13941,-0.12781 0.23554,-0.3538 0.23551,-0.58235 -3e-5,-0.22855 -0.0962,-0.45966 -0.2214,-0.58107 -0.12517,-0.1214 -0.2793,-0.1331 -0.53572,-0.13602 -0.25641,-0.003 -0.61508,0.003 -0.97375,0.009" /></g></svg>
