<?xml version="1.0" encoding="UTF-8" standalone="no"?>
<!-- Created with Inkscape (http://www.inkscape.org/) -->

<svg
   width="64mm"
   height="64mm"
   viewBox="0 0 64 64"
   version="1.1"
   id="svg1"
   sodipodi:docname="CogIcon.svg"
   inkscape:version="1.3 (0e150ed6c4, 2023-07-21)"
   xmlns:inkscape="http://www.inkscape.org/namespaces/inkscape"
   xmlns:sodipodi="http://sodipodi.sourceforge.net/DTD/sodipodi-0.dtd"
   xmlns="http://www.w3.org/2000/svg"
   xmlns:svg="http://www.w3.org/2000/svg">
  <sodipodi:namedview
     id="namedview1"
     pagecolor="#505050"
     bordercolor="#eeeeee"
     borderopacity="1"
     inkscape:showpageshadow="0"
     inkscape:pageopacity="0"
     inkscape:pagecheckerboard="0"
     inkscape:deskcolor="#505050"
     inkscape:document-units="mm"
     inkscape:zoom="2"
     inkscape:cx="85"
     inkscape:cy="109.75"
     inkscape:window-width="1680"
     inkscape:window-height="979"
     inkscape:window-x="-8"
     inkscape:window-y="-8"
     inkscape:window-maximized="1"
     inkscape:current-layer="layer1" />
  <defs
     id="defs1" />
  <g
     inkscape:label="Cog"
     inkscape:groupmode="layer"
     id="layer1"
     transform="matrix(3.9651908,0,0,3.8177616,-87.523765,-89.443134)">
    <g
       id="g25"
       transform="matrix(1.0237057,0,0,1.0237057,-0.05746612,-0.78973657)">
      <path
         id="path16"
         style="fill:#ffffff;fill-opacity:1;stroke:#ffffff;stroke-width:0.635777;stroke-linecap:round;stroke-linejoin:round;stroke-miterlimit:3.3;stroke-opacity:1"
         d="m -13.993598,35.826516 a 7.0312018,7.688983 0 0 0 -7.031203,7.688983 7.0312018,7.688983 0 0 0 7.031202,7.688984 7.0312018,7.688983 0 0 0 7.0312026,-7.688983 7.0312018,7.688983 0 0 0 -7.0312016,-7.688984 z m 0,2.489206 a 4.7549458,5.199779 0 0 1 4.7549434,5.199778 4.7549458,5.199779 0 0 1 -4.7549444,5.199777 4.7549458,5.199779 0 0 1 -4.754943,-5.199778 4.7549458,5.199779 0 0 1 4.754944,-5.199777 z"
         transform="matrix(0.90168718,-2.9389442e-8,1.4943447e-8,0.8563905,42.384581,-5.4562243)" />
      <g
         id="g20"
         style="fill:#ffffff;fill-opacity:1;stroke:#ffffff;stroke-width:0.999946;stroke-linejoin:round;stroke-dasharray:none;stroke-opacity:1"
         transform="matrix(0.45579136,0.7425348,-0.77804262,0.42672892,42.384581,-5.4562243)">
        <path
           id="rect17"
           style="fill:#ffffff;fill-opacity:1;stroke:#ffffff;stroke-width:0.999946;stroke-linecap:round;stroke-linejoin:miter;stroke-miterlimit:3.3;stroke-dasharray:none;stroke-opacity:1;paint-order:stroke markers fill"
           d="m 22.190829,30.614378 1.057308,-1.839785 2.786796,0.290735 -2.129397,3.705281 z"
           sodipodi:nodetypes="ccccc" />
        <path
           id="path18"
           style="fill:#ffffff;fill-opacity:1;stroke:#ffffff;stroke-width:0.999946;stroke-linecap:round;stroke-linejoin:miter;stroke-miterlimit:3.3;stroke-dasharray:none;stroke-opacity:1;paint-order:stroke markers fill"
           d="m 37.826107,39.775792 1.057311,-1.839784 -1.632979,-2.298448 -2.129395,3.705282 z"
           sodipodi:nodetypes="ccccc" />
      </g>
      <g
         id="g21"
         transform="matrix(0.84704038,-0.03870254,-0.03320372,0.91318923,4.9677163,1.8070272)"
         style="fill:#ffffff;fill-opacity:1;stroke:#ffffff;stroke-width:0.999946;stroke-linejoin:round;stroke-dasharray:none;stroke-opacity:1">
        <path
           id="path20"
           style="fill:#ffffff;fill-opacity:1;stroke:#ffffff;stroke-width:0.999946;stroke-linecap:round;stroke-linejoin:miter;stroke-miterlimit:3.3;stroke-dasharray:none;stroke-opacity:1;paint-order:stroke markers fill"
           d="m 21.99136,30.424992 1.057308,-1.839785 2.786796,0.290735 -2.129397,3.705281 z"
           sodipodi:nodetypes="ccccc" />
        <path
           id="path21"
           style="fill:#ffffff;fill-opacity:1;stroke:#ffffff;stroke-width:0.999946;stroke-linecap:round;stroke-linejoin:miter;stroke-miterlimit:3.3;stroke-dasharray:none;stroke-opacity:1;paint-order:stroke markers fill"
           d="m 38.018612,39.814045 1.057311,-1.839784 -1.632979,-2.298448 -2.129395,3.705282 z"
           sodipodi:nodetypes="ccccc" />
      </g>
      <g
         id="g23"
         transform="matrix(0.39124902,-0.78123734,0.74483891,0.48646032,-7.6557515,39.062838)"
         style="fill:#ffffff;fill-opacity:1;stroke:#ffffff;stroke-width:0.999946;stroke-linejoin:round;stroke-dasharray:none;stroke-opacity:1">
        <path
           id="path22"
           style="fill:#ffffff;fill-opacity:1;stroke:#ffffff;stroke-width:0.999946;stroke-linecap:round;stroke-linejoin:miter;stroke-miterlimit:3.3;stroke-dasharray:none;stroke-opacity:1;paint-order:stroke markers fill"
           d="m 21.99136,30.424992 1.057308,-1.839785 2.786796,0.290735 -2.129397,3.705281 z"
           sodipodi:nodetypes="ccccc" />
        <path
           id="path23"
           style="fill:#ffffff;fill-opacity:1;stroke:#ffffff;stroke-width:0.999946;stroke-linecap:round;stroke-linejoin:miter;stroke-miterlimit:3.3;stroke-dasharray:none;stroke-opacity:1;paint-order:stroke markers fill"
           d="m 38.018612,39.814045 1.057311,-1.839784 -1.632979,-2.298448 -2.129395,3.705282 z"
           sodipodi:nodetypes="ccccc" />
      </g>
    </g>
  </g>
</svg>
