<?xml version="1.0" encoding="UTF-8" standalone="no"?>
<!-- Created with Inkscape (http://www.inkscape.org/) -->

<svg
   width="64"
   height="64"
   viewBox="0 0 16.933331 16.933331"
   version="1.1"
   id="svg1"
   xml:space="preserve"
   sodipodi:docname="CreateNoteWhiteIcon.svg"
   inkscape:version="1.3 (0e150ed6c4, 2023-07-21)"
   xmlns:inkscape="http://www.inkscape.org/namespaces/inkscape"
   xmlns:sodipodi="http://sodipodi.sourceforge.net/DTD/sodipodi-0.dtd"
   xmlns="http://www.w3.org/2000/svg"
   xmlns:svg="http://www.w3.org/2000/svg"><sodipodi:namedview
     id="namedview1"
     pagecolor="#505050"
     bordercolor="#eeeeee"
     borderopacity="1"
     inkscape:showpageshadow="0"
     inkscape:pageopacity="0"
     inkscape:pagecheckerboard="0"
     inkscape:deskcolor="#505050"
     inkscape:zoom="5.9296874"
     inkscape:cx="17.11726"
     inkscape:cy="40.221344"
     inkscape:window-width="1680"
     inkscape:window-height="979"
     inkscape:window-x="-8"
     inkscape:window-y="-8"
     inkscape:window-maximized="1"
     inkscape:current-layer="g46" /><defs
     id="defs1"><linearGradient
       id="swatch5"><stop
         style="stop-color:#000000;stop-opacity:1;"
         offset="0"
         id="stop5" /></linearGradient><linearGradient
       id="swatch4"><stop
         style="stop-color:#000000;stop-opacity:1;"
         offset="0"
         id="stop4" /></linearGradient><linearGradient
       id="swatch3"><stop
         style="stop-color:#000000;stop-opacity:1;"
         offset="0"
         id="stop3" /></linearGradient></defs><g
     id="g46"
     transform="matrix(1.1123122,-0.03816376,0.03816376,1.1123122,-203.22665,-408.67896)"
     style="display:inline"
     inkscape:label="createNoteIcon"><path
       id="rect43"
       style="fill:#ffffff;fill-opacity:1;stroke:#ffffff;stroke-width:1.223;stroke-miterlimit:2;stroke-opacity:1"
       d="m 176.76074,379.63249 3.9338,-3.96411 1.96756,1.75818 -3.93465,4.10684 z"
       sodipodi:nodetypes="ccccc" /><path
       id="path46"
       style="fill:#f46a4e;fill-opacity:1;stroke:#ffffff;stroke-width:1.22974;stroke-miterlimit:2;stroke-opacity:1"
       d="m -388.38108,-158.91365 a 1.3100849,0.38745755 0 0 1 -0.65504,0.33555 1.3100849,0.38745755 0 0 1 -1.31008,0 1.3100849,0.38745755 0 0 1 -0.65505,-0.33555 h 1.31009 z"
       transform="matrix(-0.74626359,-0.66565055,0.68156706,-0.73175566,0,0)" /><path
       style="display:inline;fill:#ffffff;fill-opacity:1;stroke:#ffffff;stroke-width:0.382826;stroke-linecap:round;stroke-miterlimit:3.3;stroke-opacity:1"
       d="m 174.97446,381.40172 2.15317,1.93907 -2.18856,0.2942 c -0.32078,0.0369 -0.27252,0.0795 -0.25026,-0.20432 z"
       id="rect50"
       transform="matrix(1.068985,0.0366772,-0.0366772,1.068985,2.2084056,-33.302888)" /><path
       style="display:inline;fill:#797979;stroke:#ffffff;stroke-width:1.181;stroke-miterlimit:2;stroke-dasharray:none;stroke-opacity:1"
       d="m 171.02025,376.76791 c 0,3.23469 0,6.46938 0,9.70404"
       id="path4"
       transform="matrix(1.068985,0.0366772,-0.0366772,1.068985,2.2963225,-33.314458)" /><path
       style="display:inline;fill:#797979;stroke:#ffffff;stroke-width:1.181;stroke-linecap:round;stroke-miterlimit:2;stroke-dasharray:none;stroke-opacity:1"
       d="m 176.37807,375.07788 h -3.88981 -1.50089"
       id="path15"
       transform="matrix(0.61963318,0.0212598,-0.0366772,1.068985,80.69425,-30.610015)"
       sodipodi:nodetypes="ccc" /><path
       style="display:inline;fill:none;stroke:#ffffff;stroke-width:1.181;stroke-linecap:round;stroke-linejoin:miter;stroke-miterlimit:2;stroke-dasharray:none;stroke-opacity:1"
       d="m 172.53309,375.07788 c -0.47702,0 -0.95404,0 -1.19256,0.2794 -0.23851,0.2794 -0.23851,0.8382 -0.23851,1.397"
       id="path35"
       transform="matrix(1.068985,0.0366772,-0.0366772,1.068985,2.2084056,-33.302888)" /><path
       style="display:inline;fill:none;stroke:#ffffff;stroke-width:1.181;stroke-linecap:round;stroke-linejoin:miter;stroke-miterlimit:2;stroke-dasharray:none;stroke-opacity:1"
       d="m 180.67389,388.1211 c -2.67726,0 -5.3545,0 -8.03176,0"
       id="path36"
       transform="matrix(1.068985,0.0366772,-0.0366772,1.068985,2.2084056,-33.302888)" /><path
       style="display:inline;fill:none;stroke:#ffffff;stroke-width:1.181;stroke-linecap:round;stroke-linejoin:miter;stroke-miterlimit:2;stroke-dasharray:none;stroke-opacity:1"
       d="m 171.10202,386.45832 c 0,0.55425 0,1.10853 0.25669,1.38566 0.25669,0.27712 0.77005,0.27712 1.28342,0.27712"
       id="path37"
       transform="matrix(1.068985,0.0366772,-0.0366772,1.068985,2.2084056,-33.302888)" /><path
       style="display:inline;fill:none;stroke:#ffffff;stroke-width:1.181;stroke-linecap:round;stroke-linejoin:miter;stroke-miterlimit:2;stroke-dasharray:none;stroke-opacity:1"
       d="m 182.56048,382.87298 c 0,1.15007 0,2.30011 0,3.45018"
       id="path38"
       transform="matrix(1.068985,0.0366772,-0.0366772,1.068985,2.2084056,-33.302888)" /><path
       style="display:inline;fill:none;stroke:#ffffff;stroke-width:1.181;stroke-linecap:round;stroke-linejoin:miter;stroke-miterlimit:2;stroke-dasharray:none;stroke-opacity:1"
       d="m 180.67389,388.1211 c 0.62886,0 1.25772,0 1.57215,-0.29967 0.31444,-0.29967 0.31444,-0.89895 0.31444,-1.49828"
       id="path39"
       transform="matrix(1.068985,0.0366772,-0.0366772,1.068985,2.2084056,-33.302888)" /></g></svg>
