<?xml version="1.0" encoding="UTF-8" standalone="no"?>
<!-- Created with Inkscape (http://www.inkscape.org/) -->

<svg
   width="64"
   height="64.000015"
   viewBox="0 0 16.933331 16.933335"
   version="1.1"
   id="svg1"
   xml:space="preserve"
   xmlns="http://www.w3.org/2000/svg"
   xmlns:svg="http://www.w3.org/2000/svg"><defs
     id="defs1"><linearGradient
       id="swatch5"><stop
         style="stop-color:#000000;stop-opacity:1;"
         offset="0"
         id="stop5" /></linearGradient><linearGradient
       id="swatch4"><stop
         style="stop-color:#000000;stop-opacity:1;"
         offset="0"
         id="stop4" /></linearGradient><linearGradient
       id="swatch3"><stop
         style="stop-color:#000000;stop-opacity:1;"
         offset="0"
         id="stop3" /></linearGradient></defs><g
     id="layer1"
     style="display:inline"><g
       id="g52"
       transform="translate(-127.51846,55.510517)"><g
         id="g5"
         transform="matrix(1.3836096,0,0,1.3836096,191.01903,88.447761)"
         style="fill:none;stroke:#010101;stroke-opacity:1"><path
           style="fill:none;stroke:#010101;stroke-width:1.1;stroke-linecap:round;stroke-opacity:1;paint-order:stroke fill markers"
           d="m -47.892907,-117.80573 c 3.712841,0.022 7.425681,0.0441 11.138522,0.0661"
           id="path1" /><path
           style="fill:none;stroke:#010101;stroke-width:1.1;stroke-linecap:round;stroke-opacity:1;paint-order:stroke fill markers"
           d="m -47.892907,-117.80573 c 3.712841,0.022 7.425681,0.0441 11.138522,0.0661"
           id="path2"
           transform="translate(0,5.1449384)" /><path
           style="fill:none;stroke:#010101;stroke-width:1.1;stroke-linecap:round;stroke-opacity:1;paint-order:stroke fill markers"
           d="m -47.892907,-117.80573 c 3.712841,0.022 7.425681,0.0441 11.138522,0.0661"
           id="path3"
           transform="translate(0,10.289877)" /></g><g
         id="g24"
         transform="matrix(1.1846761,0,0,1.1846761,-6.3126724,66.002648)"
         style="stroke:#010101;stroke-opacity:1"><path
           style="fill:none;stroke:#010101;stroke-width:1.1;stroke-linecap:round;stroke-opacity:1;paint-order:stroke fill markers"
           d="m 134.17033,-119.1847 c -1.45945,-0.009 -2.91882,-0.0171 -3.84272,-0.0222 -0.92389,-0.005 -1.31226,-0.007 -1.76838,0.14875 -0.45613,0.15553 -0.98002,0.46826 -1.24196,0.95581 -0.26195,0.48755 -0.26195,0.8145 -0.26145,2.64219 5e-4,1.82769 -5e-4,-0.82993 5e-4,2.14178 0.001,2.97171 0.001,3.62236 0.29997,4.04755 0.29898,0.42518 0.89692,0.62488 1.39007,0.7239 0.49316,0.099 0.88153,0.0974 1.8934,0.0872 1.01187,-0.0102 2.64725,-0.0288 3.9197,-0.0382 1.27244,-0.009 2.18194,-0.009 3.09145,-0.009 0.65066,0 1.30132,0 1.72651,-0.29897 0.42518,-0.29898 0.62488,-0.89692 0.7239,-1.39007 0.099,-0.49316 0.0974,-0.88153 0.0922,-1.37083 -0.005,-0.48931 -0.0137,-1.07951 -0.0222,-1.66976"
           id="path4-2-8"
           transform="rotate(90,132.39741,-113.84938)" /><path
           id="path7"
           style="fill:none;stroke:#010101;stroke-width:1.1;stroke-linecap:round;stroke-opacity:1;paint-order:stroke fill markers"
           d="m 133.7567,-108.03786 c 1.32911,0 2.65823,0 3.98733,0 m -1.98782,-2.04044 c 0,1.3603 0,2.72058 0,4.08088" /><path
           id="path23"
           style="fill:none;fill-opacity:1;stroke:#010101;stroke-width:0.600001;stroke-linecap:butt;stroke-linejoin:miter;stroke-dasharray:none;stroke-opacity:1;paint-order:stroke fill markers"
           d="m 134.56352,-114.55673 c 0.55717,0 1.11435,0 1.67152,0 m -1.59823,-1.37196 c 0.53118,-0.002 1.06238,-0.004 1.59356,-0.006 m -1.61423,2.9916 c 0,-1.09525 0,-2.19049 0,-3.28574 m -2.96118,0.28345 c 0.28714,-0.01 0.57427,-0.0195 0.82371,0.0108 0.24944,0.0303 0.46116,0.10066 0.60652,0.23782 0.14535,0.13716 0.22433,0.34109 0.2571,0.63462 0.0328,0.29354 0.0193,0.67659 -0.0575,0.96737 -0.0768,0.29078 -0.21702,0.48921 -0.39237,0.60634 -0.17536,0.11714 -0.38584,0.15296 -0.59678,0.17071 -0.21093,0.0177 -0.42226,0.0174 -0.63359,0.0171 m -0.0155,-2.96147 c 6.7e-4,0.10005 0.001,0.2001 0.004,0.74387 0.003,0.54377 0.008,1.53125 0.0127,2.51874 m -2.87567,-3.24984 c 0.002,0.45361 0.003,0.90722 0.002,1.31599 -0.002,0.40877 -0.007,0.7727 -0.009,1.09531 -0.003,0.32261 -0.003,0.60389 -0.003,0.88518 m 0.0108,-1.51396 c 0.32964,0 0.65927,0 0.91544,-0.0148 0.25616,-0.0148 0.43888,-0.0444 0.57828,-0.17225 0.13941,-0.12781 0.23554,-0.3538 0.23551,-0.58235 -3e-5,-0.22855 -0.0962,-0.45966 -0.2214,-0.58107 -0.12517,-0.1214 -0.2793,-0.1331 -0.53572,-0.13602 -0.25641,-0.003 -0.61508,0.003 -0.97375,0.009" /></g><g
         id="g6"
         transform="matrix(1.2668678,0,0,1.2668678,-63.53903,75.456312)"><circle
           style="fill:#000000;fill-opacity:1;stroke:#010101;stroke-width:0.600001;stroke-linecap:butt;stroke-linejoin:miter;stroke-miterlimit:0;paint-order:normal"
           id="path5"
           cx="192.46191"
           cy="-117.83073"
           r="1.0335287" /><circle
           style="fill:#000000;fill-opacity:1;stroke:#010101;stroke-width:0.600001;stroke-linecap:butt;stroke-linejoin:miter;stroke-miterlimit:0;paint-order:normal"
           id="path5-1"
           cx="192.46191"
           cy="-112.63975"
           r="1.0335287" /><circle
           style="fill:#000000;fill-opacity:1;stroke:#010101;stroke-width:0.600001;stroke-linecap:butt;stroke-linejoin:miter;stroke-miterlimit:0;paint-order:normal"
           id="path5-4"
           cx="192.46191"
           cy="-107.13149"
           r="1.0335287" /></g><g
         id="g11"
         transform="matrix(1.2380613,0,0,1.2380613,-35.85625,71.830436)"><path
           style="fill:#000000;fill-opacity:0.00579708;stroke:#010101;stroke-width:1.081;stroke-linecap:round;stroke-linejoin:miter;stroke-miterlimit:0;stroke-dasharray:none;paint-order:normal"
           d="m 170.54302,-106.2079 c -1.31085,-1.31475 -2.62171,-2.6295 -3.93256,-3.94424"
           id="path8" /><ellipse
           style="fill:#000000;fill-opacity:0.00579708;stroke:#010101;stroke-width:1.081;stroke-linecap:butt;stroke-linejoin:miter;stroke-miterlimit:0;stroke-dasharray:none;paint-order:normal"
           id="path6"
           cx="163.10962"
           cy="-113.78873"
           rx="5.1629057"
           ry="4.9477849" /></g><g
         id="g27"
         transform="matrix(1.3172618,0,0,1.3172618,-35.336946,54.25727)"><path
           style="fill:#000000;fill-opacity:0.00579708;stroke:#797979;stroke-width:1.081;stroke-linecap:round;stroke-linejoin:miter;stroke-miterlimit:0;stroke-dasharray:none;stroke-opacity:1;paint-order:normal"
           d="m 125.92513,-81.276692 c 0,2.915928 0,5.831859 0,8.747787"
           id="path14" /><path
           style="fill:#000000;fill-opacity:0.00579708;stroke:#797979;stroke-width:1.081;stroke-linecap:round;stroke-linejoin:miter;stroke-miterlimit:0;stroke-dasharray:none;stroke-opacity:1;paint-order:normal"
           d="m 124.17226,-74.182551 c 0.58429,0.551215 1.16858,1.102431 1.75287,1.653646"
           id="path21" /><path
           style="fill:#000000;fill-opacity:0.00579708;stroke:#797979;stroke-width:1.081;stroke-linecap:round;stroke-linejoin:miter;stroke-miterlimit:0;stroke-dasharray:none;stroke-opacity:1;paint-order:normal"
           d="m 128.68777,-80.681379 c 2.41949,0 4.83897,0 7.25845,0"
           id="path24" /><path
           style="fill:#000000;fill-opacity:0.00579708;stroke:#797979;stroke-width:1.081;stroke-linecap:round;stroke-linejoin:miter;stroke-miterlimit:0;stroke-dasharray:none;stroke-opacity:1;paint-order:normal"
           d="m 128.68777,-76.778775 c 1.31705,0 2.6341,0 3.95116,0"
           id="path25" /><path
           style="fill:#000000;fill-opacity:0.00579708;stroke:#797979;stroke-width:1.081;stroke-linecap:round;stroke-linejoin:miter;stroke-miterlimit:0;stroke-dasharray:none;stroke-opacity:1;paint-order:normal"
           d="m 128.68672,-73.008463 c 0.89021,0 1.78042,0 2.67063,0"
           id="path26" /></g><g
         id="g30"
         transform="translate(13.905537,8.676511)"><path
           style="fill:#000000;fill-opacity:0.00579708;stroke:#797979;stroke-width:1.081;stroke-linecap:round;stroke-linejoin:miter;stroke-miterlimit:0;stroke-dasharray:none;stroke-opacity:1;paint-order:normal"
           d="m 193.51984,-81.61743 c -0.0331,3.211689 -0.0661,6.423377 -0.0992,9.635067"
           id="path27" /><path
           style="fill:#000000;fill-opacity:0.00579708;stroke:#797979;stroke-width:1.081;stroke-linecap:round;stroke-linejoin:miter;stroke-miterlimit:0;stroke-dasharray:none;stroke-opacity:1;paint-order:normal"
           d="m 189.52435,-75.985025 c 1.29911,1.327959 2.59823,2.655925 3.89734,3.983884"
           id="path28" /><path
           style="fill:#000000;fill-opacity:0.00579708;stroke:#797979;stroke-width:1.081;stroke-linecap:round;stroke-linejoin:miter;stroke-miterlimit:0;stroke-dasharray:none;stroke-opacity:1;paint-order:normal"
           d="m 197.50717,-76.086622 c -1.36212,1.36212 -2.72424,2.72424 -4.08635,4.086352"
           id="path29" /></g><g
         id="g46"
         transform="matrix(1.1123122,-0.03816376,0.03816376,1.1123122,13.773632,-485.09624)"
         style="display:inline"><path
           id="rect43"
           style="fill:#f46a4e;fill-opacity:1;stroke:#f5694e;stroke-width:1.223;stroke-miterlimit:2;stroke-opacity:1"
           d="m 176.76074,379.63249 3.9338,-3.96411 1.96756,1.75818 -3.93465,4.10684 z" /><path
           id="path46"
           style="fill:#f46a4e;fill-opacity:1;stroke:#f5694e;stroke-width:1.22974;stroke-miterlimit:2;stroke-opacity:1"
           d="m -388.38108,-158.91365 a 1.3100849,0.38745755 0 0 1 -0.65504,0.33555 1.3100849,0.38745755 0 0 1 -1.31008,0 1.3100849,0.38745755 0 0 1 -0.65505,-0.33555 h 1.31009 z"
           transform="matrix(-0.74626359,-0.66565055,0.68156706,-0.73175566,0,0)" /><path
           style="display:inline;fill:#f46a4e;fill-opacity:1;stroke:#f5694e;stroke-width:0.382826;stroke-linecap:round;stroke-miterlimit:3.3;stroke-opacity:1"
           d="m 174.97446,381.40172 2.15317,1.93907 -2.18856,0.2942 c -0.32078,0.0369 -0.27252,0.0795 -0.25026,-0.20432 z"
           id="rect50"
           transform="matrix(1.068985,0.0366772,-0.0366772,1.068985,2.2084056,-33.302888)" /><path
           style="display:inline;fill:#797979;stroke:#f5694e;stroke-width:1.181;stroke-miterlimit:2;stroke-dasharray:none;stroke-opacity:1"
           d="m 171.02025,376.76791 c 0,3.23469 0,6.46938 0,9.70404"
           id="path4"
           transform="matrix(1.068985,0.0366772,-0.0366772,1.068985,2.2963225,-33.314458)" /><path
           style="display:inline;fill:#797979;stroke:#f5694e;stroke-width:1.181;stroke-linecap:round;stroke-miterlimit:2;stroke-dasharray:none;stroke-opacity:1"
           d="m 176.37807,375.07788 c -1.79689,0 -3.5938,0 -5.3907,0"
           id="path15"
           transform="matrix(0.61963318,0.0212598,-0.0366772,1.068985,80.69425,-30.610015)" /><path
           style="display:inline;fill:none;stroke:#f5694e;stroke-width:1.181;stroke-linecap:round;stroke-linejoin:miter;stroke-miterlimit:2;stroke-dasharray:none;stroke-opacity:1"
           d="m 172.53309,375.07788 c -0.47702,0 -0.95404,0 -1.19256,0.2794 -0.23851,0.2794 -0.23851,0.8382 -0.23851,1.397"
           id="path35"
           transform="matrix(1.068985,0.0366772,-0.0366772,1.068985,2.2084056,-33.302888)" /><path
           style="display:inline;fill:none;stroke:#f5694e;stroke-width:1.181;stroke-linecap:round;stroke-linejoin:miter;stroke-miterlimit:2;stroke-dasharray:none;stroke-opacity:1"
           d="m 180.67389,388.1211 c -2.67726,0 -5.3545,0 -8.03176,0"
           id="path36"
           transform="matrix(1.068985,0.0366772,-0.0366772,1.068985,2.2084056,-33.302888)" /><path
           style="display:inline;fill:none;stroke:#f5694e;stroke-width:1.181;stroke-linecap:round;stroke-linejoin:miter;stroke-miterlimit:2;stroke-dasharray:none;stroke-opacity:1"
           d="m 171.10202,386.45832 c 0,0.55425 0,1.10853 0.25669,1.38566 0.25669,0.27712 0.77005,0.27712 1.28342,0.27712"
           id="path37"
           transform="matrix(1.068985,0.0366772,-0.0366772,1.068985,2.2084056,-33.302888)" /><path
           style="display:inline;fill:none;stroke:#f46a4e;stroke-width:1.181;stroke-linecap:round;stroke-linejoin:miter;stroke-miterlimit:2;stroke-dasharray:none;stroke-opacity:1"
           d="m 182.56048,382.87298 c 0,1.15007 0,2.30011 0,3.45018"
           id="path38"
           transform="matrix(1.068985,0.0366772,-0.0366772,1.068985,2.2084056,-33.302888)" /><path
           style="display:inline;fill:none;stroke:#f5694e;stroke-width:1.181;stroke-linecap:round;stroke-linejoin:miter;stroke-miterlimit:2;stroke-dasharray:none;stroke-opacity:1"
           d="m 180.67389,388.1211 c 0.62886,0 1.25772,0 1.57215,-0.29967 0.31444,-0.29967 0.31444,-0.89895 0.31444,-1.49828"
           id="path39"
           transform="matrix(1.068985,0.0366772,-0.0366772,1.068985,2.2084056,-33.302888)" /></g></g></g></svg>
