<?xml version="1.0" encoding="UTF-8" standalone="no"?>
<!-- Created with Inkscape (http://www.inkscape.org/) -->

<svg
   width="63.999996"
   height="63.999996"
   viewBox="0 0 16.933332 16.933332"
   version="1.1"
   id="svg1"
   xml:space="preserve"
   sodipodi:docname="NoteSettingsIcon.svg"
   inkscape:version="1.3 (0e150ed6c4, 2023-07-21)"
   xmlns:inkscape="http://www.inkscape.org/namespaces/inkscape"
   xmlns:sodipodi="http://sodipodi.sourceforge.net/DTD/sodipodi-0.dtd"
   xmlns="http://www.w3.org/2000/svg"
   xmlns:svg="http://www.w3.org/2000/svg"><sodipodi:namedview
     id="namedview1"
     pagecolor="#505050"
     bordercolor="#eeeeee"
     borderopacity="1"
     inkscape:showpageshadow="0"
     inkscape:pageopacity="0"
     inkscape:pagecheckerboard="0"
     inkscape:deskcolor="#505050"
     inkscape:zoom="11.593751"
     inkscape:cx="34.760105"
     inkscape:cy="34.113205"
     inkscape:window-width="1680"
     inkscape:window-height="979"
     inkscape:window-x="-8"
     inkscape:window-y="-8"
     inkscape:window-maximized="1"
     inkscape:current-layer="g46" /><defs
     id="defs1" /><g
     id="g1"
     transform="matrix(0.26432621,0,0,0.26432621,-0.36693878,-5.76531e-6)"><g
       id="g25"
       transform="matrix(1.8312155,0.46016117,-0.44305197,1.7631294,5.8083039,-23.379413)"><path
         id="path16"
         style="fill:#ffffff;fill-opacity:1;stroke:#ffffff;stroke-width:0.635777;stroke-linecap:round;stroke-linejoin:round;stroke-miterlimit:3.3;stroke-opacity:1"
         d="m -13.993598,35.826516 a 7.0312018,7.688983 0 0 0 -7.031203,7.688983 7.0312018,7.688983 0 0 0 7.031202,7.688984 7.0312018,7.688983 0 0 0 7.0312026,-7.688983 7.0312018,7.688983 0 0 0 -7.0312016,-7.688984 z m 0,2.489206 a 4.7549458,5.199779 0 0 1 4.7549434,5.199778 4.7549458,5.199779 0 0 1 -4.7549444,5.199777 4.7549458,5.199779 0 0 1 -4.754943,-5.199778 4.7549458,5.199779 0 0 1 4.754944,-5.199777 z"
         transform="matrix(0.90168718,-2.9389442e-8,1.4943447e-8,0.8563905,42.384581,-5.4562243)" /><g
         id="g20"
         style="fill:#cccccc;fill-opacity:1;stroke:#cccccc;stroke-width:0.999946;stroke-linejoin:round;stroke-dasharray:none;stroke-opacity:1"
         transform="matrix(0.45579136,-0.7425348,-0.77804262,-0.42672892,42.384581,69.111127)"><path
           id="rect17"
           style="fill:#ffffff;fill-opacity:1;stroke:#ffffff;stroke-width:0.999946;stroke-linecap:round;stroke-linejoin:miter;stroke-miterlimit:3.3;stroke-dasharray:none;stroke-opacity:1;paint-order:stroke markers fill"
           d="m 22.190829,30.614378 1.057308,-1.839785 2.786796,0.290735 -2.129397,3.705281 z" /><path
           id="path18"
           style="fill:#ffffff;fill-opacity:1;stroke:#ffffff;stroke-width:0.999946;stroke-linecap:round;stroke-linejoin:miter;stroke-miterlimit:3.3;stroke-dasharray:none;stroke-opacity:1;paint-order:stroke markers fill"
           d="m 37.826107,39.775792 1.057311,-1.839784 -1.632979,-2.298448 -2.129395,3.705282 z" /></g><g
         id="g21"
         transform="matrix(0.84704038,-0.03870254,-0.03320372,0.91318923,4.9677163,1.8070272)"
         style="fill:#cccccc;fill-opacity:1;stroke:#cccccc;stroke-width:0.999946;stroke-linejoin:round;stroke-dasharray:none;stroke-opacity:1"><path
           id="path20"
           style="fill:#ffffff;fill-opacity:1;stroke:#ffffff;stroke-width:0.999946;stroke-linecap:round;stroke-linejoin:miter;stroke-miterlimit:3.3;stroke-dasharray:none;stroke-opacity:1;paint-order:stroke markers fill"
           d="m 21.99136,30.424992 1.057308,-1.839785 2.786796,0.290735 -2.129397,3.705281 z" /><path
           id="path21"
           style="fill:#ffffff;fill-opacity:1;stroke:#ffffff;stroke-width:0.999946;stroke-linecap:round;stroke-linejoin:miter;stroke-miterlimit:3.3;stroke-dasharray:none;stroke-opacity:1;paint-order:stroke markers fill"
           d="m 38.018612,39.814045 1.057311,-1.839784 -1.632979,-2.298448 -2.129395,3.705282 z" /></g><g
         id="g23"
         transform="matrix(0.39124902,-0.78123734,0.74483891,0.48646032,-7.6557515,39.062838)"
         style="fill:#cccccc;fill-opacity:1;stroke:#cccccc;stroke-width:0.999946;stroke-linejoin:round;stroke-dasharray:none;stroke-opacity:1"><path
           id="path22"
           style="fill:#ffffff;fill-opacity:1;stroke:#ffffff;stroke-width:0.999946;stroke-linecap:round;stroke-linejoin:miter;stroke-miterlimit:3.3;stroke-dasharray:none;stroke-opacity:1;paint-order:stroke markers fill"
           d="m 21.99136,30.424992 1.057308,-1.839785 2.786796,0.290735 -2.129397,3.705281 z" /><path
           id="path23"
           style="fill:#ffffff;fill-opacity:1;stroke:#ffffff;stroke-width:0.999946;stroke-linecap:round;stroke-linejoin:miter;stroke-miterlimit:3.3;stroke-dasharray:none;stroke-opacity:1;paint-order:stroke markers fill"
           d="m 38.018612,39.814045 1.057311,-1.839784 -1.632979,-2.298448 -2.129395,3.705282 z" /></g></g><g
       id="g46"
       transform="matrix(4.2040186,0.14424105,0.14424112,-4.2040188,-767.02433,1608.615)"
       style="display:inline;fill:#cccccc;fill-opacity:1;stroke:#ffffff;stroke-width:0.999946;stroke-linejoin:round;stroke-dasharray:none;stroke-opacity:1"><path
         style="display:inline;fill:#797979;stroke:#ffffff;stroke-width:1.181;stroke-miterlimit:2;stroke-dasharray:none;stroke-opacity:1"
         d="m 171.02025,376.76791 c 0,3.23469 0,6.46938 0,9.70404"
         id="path4"
         transform="matrix(1.068985,0.0366772,-0.0366772,1.068985,2.2963225,-33.314458)" /><path
         style="display:inline;fill:#797979;stroke:#ffffff;stroke-width:1.181;stroke-linecap:round;stroke-miterlimit:2;stroke-dasharray:none;stroke-opacity:1"
         d="m 175.98466,375.07316 -3.4964,0.005 -1.50089,0"
         id="path15"
         transform="matrix(0.61963318,0.0212598,-0.0366772,1.068985,80.69425,-30.610015)"
         sodipodi:nodetypes="ccc" /><path
         style="display:inline;fill:none;stroke:#ffffff;stroke-width:1.181;stroke-linecap:round;stroke-linejoin:miter;stroke-miterlimit:2;stroke-dasharray:none;stroke-opacity:1"
         d="m 172.53309,375.07788 c -0.47702,0 -0.95404,0 -1.19256,0.2794 -0.23851,0.2794 -0.23851,0.8382 -0.23851,1.397"
         id="path35"
         transform="matrix(1.068985,0.0366772,-0.0366772,1.068985,2.2084056,-33.302888)" /><path
         style="display:inline;fill:none;stroke:#ffffff;stroke-width:1.181;stroke-linecap:round;stroke-linejoin:miter;stroke-miterlimit:2;stroke-dasharray:none;stroke-opacity:1"
         d="m 180.67389,388.1211 c -2.67726,0 -5.3545,0 -8.03176,0"
         id="path36"
         transform="matrix(1.068985,0.0366772,-0.0366772,1.068985,2.2084056,-33.302888)" /><path
         style="display:inline;fill:none;stroke:#ffffff;stroke-width:1.181;stroke-linecap:round;stroke-linejoin:miter;stroke-miterlimit:2;stroke-dasharray:none;stroke-opacity:1"
         d="m 171.10202,386.45832 c 0,0.55425 0,1.10853 0.25669,1.38566 0.25669,0.27712 0.77005,0.27712 1.28342,0.27712"
         id="path37"
         transform="matrix(1.068985,0.0366772,-0.0366772,1.068985,2.2084056,-33.302888)" /><path
         style="display:inline;fill:none;stroke:#ffffff;stroke-width:1.181;stroke-linecap:round;stroke-linejoin:miter;stroke-miterlimit:2;stroke-dasharray:none;stroke-opacity:1"
         d="m 182.56048,382.97416 0,2.63753 v 0.71147"
         id="path38"
         transform="matrix(1.068985,0.0366772,-0.0366772,1.068985,2.2084056,-33.302888)"
         sodipodi:nodetypes="ccc" /><path
         style="display:inline;fill:none;stroke:#ffffff;stroke-width:1.181;stroke-linecap:round;stroke-linejoin:miter;stroke-miterlimit:2;stroke-dasharray:none;stroke-opacity:1"
         d="m 180.67389,388.1211 c 0.62886,0 1.25772,0 1.57215,-0.29967 0.31444,-0.29967 0.31444,-0.89895 0.31444,-1.49828"
         id="path39"
         transform="matrix(1.068985,0.0366772,-0.0366772,1.068985,2.2084056,-33.302888)" /></g></g></svg>
